<?xml version="1.0" encoding="utf-8"?>
<!-- Generator: Adobe Illustrator 26.1.0, SVG Export Plug-In . SVG Version: 6.00 Build 0)  -->
<svg version="1.1" id="Layer_1" xmlns="http://www.w3.org/2000/svg" xmlns:xlink="http://www.w3.org/1999/xlink" x="0px" y="0px"
	 viewBox="0 0 600 600" style="enable-background:new 0 0 600 600;" xml:space="preserve" fill="#a7d937">
<g>
	<path d="M406.73,374.73c-3.77,9.36-8.11,18.43-12.95,27.18c-5.25,9.56-11.13,18.72-17.59,27.44c-6.58,8.95-13.77,17.47-21.5,25.44
		c-7.91,8.23-16.4,15.88-25.39,22.95c-9.27,7.3-19.07,13.94-29.3,19.85c-10.26-5.91-20.08-12.55-29.36-19.85
		c-8.95-7.07-17.47-14.72-25.39-22.95c-7.74-7.97-14.92-16.49-21.47-25.44c-6.46-8.72-12.35-17.88-17.59-27.44
		c-4.84-8.72-9.16-17.79-12.92-27.12c10.93-0.75,21.68-2.23,32.17-4.38c3.01,6.78,6.38,13.39,10.08,19.79
		c5.22,9.1,11.13,17.79,17.59,26.02c6.58,8.38,13.77,16.26,21.47,23.59c7.94,7.53,16.43,14.46,25.41,20.69
		c8.98-6.26,17.47-13.19,25.39-20.69c7.71-7.3,14.9-15.18,21.47-23.56c6.46-8.23,12.35-16.92,17.59-26.02
		c3.71-6.46,7.1-13.13,10.14-19.97C385.08,372.41,395.8,373.92,406.73,374.73z"/>
	<path d="M361.65,278.17c-0.55-7.82-1.59-15.47-3.1-22.98v-0.03c-1.13-5.74-2.52-11.36-4.17-16.89c-0.52-1.8-1.07-3.56-1.68-5.33
		c-2.09-6.35-4.52-12.52-7.27-18.55c-1.97-4.32-4.09-8.55-6.38-12.69c-4.17-7.59-8.87-14.87-14.03-21.76
		c-1.16-1.56-2.35-3.07-3.56-4.58c-5.85-7.39-12.29-14.32-19.21-20.72c-0.72-0.7-1.48-1.36-2.23-2.06
		c-0.43,0.38-0.84,0.75-1.25,1.13c-7.33,6.64-14.08,13.88-20.23,21.65c-1.01,1.25-2,2.49-2.93,3.77
		c-5.45,7.16-10.35,14.69-14.69,22.6c-2.12,3.83-4.09,7.74-5.91,11.74c-2.93,6.32-5.51,12.81-7.71,19.47
		c-0.7,2.03-1.3,4.06-1.91,6.11c-1.45,4.96-2.72,9.97-3.77,15.1c-1.62,7.97-2.72,16.11-3.3,24.43c-0.32,4.35-0.46,8.72-0.46,13.13
		c0,3.16,0.09,6.29,0.23,9.42c0.17,3.65,0.46,7.3,0.87,10.9c1.13,10.64,3.19,21.01,6.06,31.04c0.7,2.49,1.48,4.98,2.29,7.45
		c2.49,7.51,5.42,14.81,8.81,21.85c1.51,3.16,3.13,6.29,4.81,9.36c5.13,9.3,11.01,18.11,17.59,26.34
		c6.49,8.2,13.71,15.82,21.5,22.81c7.8-6.98,14.98-14.61,21.47-22.81c6.58-8.23,12.46-17.04,17.56-26.31
		c1.77-3.16,3.42-6.38,4.96-9.65c3.33-6.95,6.23-14.17,8.69-21.59c0.84-2.55,1.65-5.1,2.38-7.68v-0.03
		c2.84-10.06,4.87-20.43,6-31.07c0.35-3.16,0.61-6.35,0.78-9.53c0.2-3.48,0.29-6.98,0.29-10.49
		C362.15,287.15,361.97,282.63,361.65,278.17z M330.73,297.38c-0.41,11.39-2.03,22.46-4.75,33.12c-0.52,2.03-1.1,4.03-1.71,6.03
		c-1.85,6.23-4.09,12.29-6.69,18.14c-0.81,1.8-1.62,3.56-2.52,5.33c-4.23,8.72-9.3,16.98-15.07,24.69
		c-5.68-7.59-10.66-15.74-14.9-24.31c-0.93-1.88-1.8-3.77-2.67-5.71c-2.72-6.11-5.04-12.46-6.95-18.98
		c-0.49-1.59-0.93-3.22-1.33-4.81c-2.75-10.61-4.43-21.65-4.84-33.01c-0.12-2.06-0.14-4.11-0.14-6.17c0-1.01,0-2,0.06-3.01v-0.03
		c0.17-10.64,1.45-21.01,3.68-31.04v-0.03c0.75-3.27,1.59-6.49,2.52-9.68c1.91-6.58,4.26-12.98,7.01-19.16
		c2.32-5.22,4.9-10.29,7.77-15.18c0-0.03,0-0.03,0-0.03c2.98-5.13,6.26-10.08,9.79-14.84c3.71,4.98,7.13,10.17,10.26,15.56v0.03
		c2.7,4.67,5.13,9.51,7.33,14.46c2.87,6.43,5.27,13.1,7.24,19.97c0.75,2.61,1.45,5.27,2.06,7.97v0.03
		c2.43,10.58,3.8,21.53,3.94,32.8c0.03,0.72,0.03,1.45,0.03,2.17C330.85,293.62,330.82,295.5,330.73,297.38z"/>
	<path d="M329.31,122.25c-1.01,0.46-2.03,0.96-3.01,1.48c-7.85,3.97-15.42,8.4-22.69,13.27h-0.03c-1.22,0.78-2.38,1.62-3.56,2.49
		c-0.87-0.64-1.71-1.22-2.58-1.8c-7.36-4.98-15.01-9.51-22.98-13.59c-1.25-0.64-2.49-1.25-3.77-1.88c1.8-1.42,3.62-2.81,5.48-4.14
		c3.88-2.9,7.85-5.68,11.91-8.32c3.91-2.58,7.88-5.04,11.94-7.36c4.26,2.49,8.46,5.07,12.58,7.8c4.23,2.78,8.35,5.71,12.37,8.72
		C326.44,120.02,327.86,121.12,329.31,122.25z"/>
</g>
</svg>
