<?xml version="1.0" standalone="no"?>
<!DOCTYPE svg PUBLIC "-//W3C//DTD SVG 20010904//EN"
 "http://www.w3.org/TR/2001/REC-SVG-20010904/DTD/svg10.dtd">
<svg version="1.0" xmlns="http://www.w3.org/2000/svg"
 width="1000.000000pt" height="1000.000000pt" viewBox="0 0 1000.000000 1000.000000"
 preserveAspectRatio="xMidYMid meet">
<metadata>
Created by potrace 1.14, written by Peter Selinger 2001-2017
</metadata>
<g transform="translate(0.000000,1000.000000) scale(0.100000,-0.100000)"
fill="#000000" stroke="none">
<path d="M0 5000 l0 -5000 5000 0 5000 0 0 5000 0 5000 -5000 0 -5000 0 0
-5000z m5132 4549 c160 -93 313 -192 466 -300 l123 -87 -193 -99 c-106 -55
-269 -146 -362 -203 -137 -83 -173 -100 -185 -91 -68 48 -387 232 -523 301
-92 47 -168 88 -168 91 0 10 278 202 430 296 227 141 264 162 277 163 7 0 67
-32 135 -71z m58 -1276 c507 -492 828 -975 1071 -1608 110 -286 197 -648 241
-998 28 -229 30 -666 5 -894 -76 -672 -273 -1242 -630 -1819 -196 -317 -525
-711 -777 -928 l-101 -88 -87 78 c-417 375 -750 812 -997 1309 -128 257 -203
447 -276 699 -221 762 -223 1553 -5 2313 214 747 594 1372 1178 1937 100 97
184 176 188 176 4 0 90 -80 190 -177z m1752 -4933 c118 -21 465 -65 599 -76
l87 -6 -31 -72 c-18 -39 -71 -150 -119 -246 -511 -1030 -1364 -1927 -2385
-2509 l-92 -52 -42 22 c-154 78 -503 306 -713 464 -720 543 -1310 1245 -1711
2036 -70 137 -155 324 -155 339 0 4 44 10 98 14 130 10 452 51 582 75 58 11
106 19 106 18 1 -1 29 -57 62 -123 242 -483 542 -895 952 -1304 269 -270 434
-407 727 -610 l93 -64 97 67 c437 299 893 739 1213 1172 168 228 329 486 448
722 42 84 77 153 78 153 0 0 48 -9 106 -20z"/>
<path d="M4942 7293 c-263 -360 -451 -741 -568 -1153 -276 -972 -110 -2033
448 -2870 96 -144 171 -249 178 -249 9 0 183 250 246 356 269 448 431 919 490
1428 34 290 21 686 -32 1005 -81 484 -325 1050 -631 1463 -36 48 -69 87 -73
87 -4 0 -30 -30 -58 -67z"/>
</g>
</svg>
